<svg version="1.1" id="Layer_1" xmlns="http://www.w3.org/2000/svg" xmlns:xlink="http://www.w3.org/1999/xlink" x="0px" y="0px"
	 width="100%" viewBox="0 0 383 382" enable-background="new 0 0 383 382" xml:space="preserve">
<path fill="#020202" opacity="1.000000" stroke="none" 
	d="
M210.785614,1.333337 
	C267.316833,1.000000 323.633728,1.035307 379.950287,0.910654 
	C383.264008,0.903319 384.104584,1.421909 384.101166,4.948224 
	C383.980164,129.578232 383.975372,254.208405 384.115540,378.838379 
	C384.119873,382.688049 383.026123,383.079041 379.663910,383.076599 
	C254.867233,382.985687 130.070465,382.981995 5.273814,383.091705 
	C1.736394,383.094818 0.893819,382.450317 0.897463,378.776123 
	C1.020903,254.312714 1.024488,129.849167 0.889416,5.385808 
	C0.885074,1.384536 2.071763,0.909965 5.611847,0.917371 
	C61.761936,1.034848 117.912346,1.000000 174.531342,1.000000 
	C176.057449,4.852828 172.894836,4.065791 171.107834,4.285658 
	C153.811050,6.413824 136.929779,10.250346 120.980164,17.350006 
	C59.351257,44.782913 20.903736,91.168190 8.272764,157.734039 
	C-0.218061,202.481110 7.303807,245.012711 29.963587,284.543030 
	C51.140205,321.485962 81.678047,348.170227 120.945587,364.637726 
	C159.617752,380.855560 199.551956,383.147614 239.970993,373.090393 
	C270.388519,365.521790 297.244568,350.664276 320.307098,329.248596 
	C352.756866,299.115967 372.436615,262.120117 378.936584,218.364120 
	C383.362915,188.566925 380.598785,159.231003 371.249359,130.536957 
	C369.867401,126.295616 367.443665,124.332169 362.879791,124.340088 
	C324.217834,124.407227 285.555511,124.420723 246.893677,124.321281 
	C242.639420,124.310341 240.711227,126.461906 239.016296,129.883057 
	C225.404099,157.358841 211.659302,184.768860 197.895004,212.168823 
	C196.737625,214.472733 196.179779,218.070251 193.254120,218.172867 
	C189.957352,218.288483 189.315384,214.481400 188.119781,212.102554 
	C174.502640,185.009415 160.892944,157.911682 147.461121,130.726715 
	C145.154404,126.058083 142.328415,123.978058 137.034988,124.278244 
	C129.892151,124.683311 122.708961,124.357887 115.543236,124.385345 
	C109.697945,124.407753 109.432182,124.742622 111.902084,129.807358 
	C121.468552,149.424149 131.422897,168.847839 141.157639,188.381073 
	C153.195984,212.536560 165.304016,236.657257 177.315186,260.826447 
	C182.349014,270.955688 187.399979,281.080444 192.703064,291.126007 
	C195.038925,290.452789 195.246368,288.380615 196.007019,286.862427 
	C216.311508,246.336594 236.719391,205.861206 256.705688,165.178650 
	C259.902527,158.671402 263.845123,156.347153 270.979889,156.474258 
	C293.470154,156.874908 315.972046,156.600555 338.469391,156.633789 
	C345.846191,156.644684 347.068207,157.837006 348.238708,164.974579 
	C353.578247,197.534103 349.050751,228.788055 335.028381,258.501923 
	C322.139465,285.813904 302.761688,307.639038 277.144958,323.830475 
	C249.256226,341.457916 218.746338,349.868286 185.903198,348.214111 
	C153.142731,346.564117 123.417870,335.710144 97.153755,315.718933 
	C77.534256,300.785370 62.317543,282.126038 51.695133,260.096252 
	C34.802547,225.062805 30.845589,188.450531 41.102306,150.637024 
	C53.045410,106.606293 79.458672,73.882225 119.264870,52.098007 
	C137.239639,42.261196 156.672256,36.622028 177.216125,34.471638 
	C207.465622,31.305330 235.989456,37.141048 263.068848,50.180096 
	C279.988922,58.327301 295.049835,69.403999 307.749054,83.395088 
	C310.562103,86.494316 313.622467,87.809593 317.810364,87.694771 
	C326.636017,87.452782 335.473022,87.641953 344.305145,87.600502 
	C345.753174,87.593704 347.689301,88.226936 348.486816,86.774330 
	C349.300781,85.291733 347.685974,84.040413 346.851868,82.869835 
	C333.674347,64.376060 317.865631,48.498566 299.062927,35.749836 
	C273.512207,18.425808 245.420883,7.753886 214.665314,4.302939 
	C212.926117,4.107792 210.815613,4.277833 210.785614,1.333337 
z"/>
<path fill="#FCFCFC" opacity="1.000000" stroke="none" 
	d="
M210.531342,1.000000 
	C210.728348,3.923122 213.133621,2.668416 214.217438,2.796967 
	C253.012070,7.398410 287.295715,22.338690 316.937958,47.742420 
	C330.636597,59.482288 342.398438,72.980492 351.963196,88.231773 
	C351.212982,89.934074 349.883148,89.312775 348.846039,89.316818 
	C337.513702,89.360970 326.180084,89.272423 314.849457,89.420433 
	C312.246124,89.454437 310.591888,88.543350 308.887451,86.668594 
	C245.981888,17.476669 138.351364,17.897001 76.204720,87.529091 
	C12.208845,159.233139 28.951279,273.368134 110.824135,323.533508 
	C203.474396,380.302460 322.609314,329.291962 345.658447,222.880096 
	C350.080505,202.464462 350.158478,181.902954 346.189087,161.328156 
	C345.649963,158.533661 344.625458,157.890442 342.013275,157.899460 
	C316.515381,157.987518 291.016907,158.008575 265.519165,157.909027 
	C262.607635,157.897675 261.213867,158.826096 259.891327,161.486832 
	C237.825241,205.880310 215.615265,250.202271 193.309799,294.795227 
	C190.950333,292.333008 190.048508,289.268646 188.671829,286.518799 
	C162.214584,233.670715 135.839996,180.781189 109.301239,127.974129 
	C107.341255,124.074135 107.921661,123.357567 112.093750,123.458038 
	C121.754196,123.690681 131.429031,123.713196 141.087311,123.440445 
	C144.512177,123.343727 145.989792,124.640495 147.429581,127.545296 
	C161.989365,156.920013 176.704727,186.217636 191.398102,215.526031 
	C191.811523,216.350677 191.789932,217.578552 193.554001,217.826523 
	C199.125504,206.702927 204.767105,195.460449 210.389938,184.208633 
	C219.842102,165.293976 229.329758,146.396729 238.676880,127.430252 
	C240.092117,124.558548 241.712875,123.429482 245.100327,123.442200 
	C285.097015,123.592316 325.094696,123.595589 365.091370,123.442902 
	C368.893433,123.428383 370.650574,124.510986 371.792572,128.162796 
	C394.366913,200.349960 381.152313,265.020050 330.335968,321.204651 
	C307.288635,346.686737 278.337250,363.468842 245.306213,373.004059 
	C213.958008,382.053497 182.285080,382.877686 150.554108,375.487122 
	C73.785561,357.606781 16.631407,296.271515 5.705821,218.100662 
	C-2.693700,158.003418 14.221584,104.873764 55.904087,60.540730 
	C87.393898,27.048523 126.594696,8.037021 172.355438,2.769113 
	C173.463013,2.641612 174.743362,2.900289 175.270996,1.373511 
	C186.687561,1.000000 198.375122,1.000000 210.531342,1.000000 
z"/>
</svg>